<?xml version="1.0" standalone="no"?>
<!DOCTYPE svg PUBLIC "-//W3C//DTD SVG 20010904//EN"
 "http://www.w3.org/TR/2001/REC-SVG-20010904/DTD/svg10.dtd">
<svg version="1.0" xmlns="http://www.w3.org/2000/svg"
 width="279.000000pt" height="279.000000pt" viewBox="0 0 279.000000 279.000000"
 preserveAspectRatio="xMidYMid meet">
<metadata>
Created by potrace 1.14, written by Peter Selinger 2001-2017
</metadata>
<g transform="translate(0.000000,279.000000) scale(0.100000,-0.100000)"
fill="#000000" stroke="none">
<path d="M0 1395 l0 -1395 1395 0 1395 0 0 1395 0 1395 -1395 0 -1395 0 0
-1395z m2169 1104 c163 -37 295 -172 330 -339 9 -40 11 -255 9 -810 l-3 -755
-23 -57 c-46 -114 -156 -201 -295 -233 -58 -13 -184 -15 -946 -13 l-880 3 -30
29 c-54 51 -53 127 0 177 l30 28 882 3 c955 4 929 2 982 58 15 15 31 45 36 66
4 22 9 350 9 730 0 765 0 761 -62 821 -65 61 -23 58 -773 61 -379 2 -718 0
-753 -3 -50 -5 -70 -13 -97 -36 -53 -47 -56 -80 -53 -572 3 -422 4 -436 24
-463 40 -54 69 -68 142 -68 77 0 118 19 148 68 17 27 20 59 24 261 5 212 7
233 27 271 86 161 323 195 453 64 72 -71 80 -109 80 -357 0 -213 4 -236 47
-275 30 -28 108 -40 169 -28 40 9 60 20 83 46 l31 35 0 283 c0 278 0 284 23
317 41 61 105 76 165 39 58 -35 62 -60 62 -348 0 -143 -4 -282 -10 -311 -35
-187 -193 -310 -397 -311 -180 0 -315 78 -382 219 -25 55 -26 62 -29 283 -3
215 -4 228 -23 238 -11 6 -28 8 -39 5 -17 -6 -19 -20 -22 -228 -3 -206 -5
-226 -27 -282 -34 -83 -124 -173 -206 -204 -73 -28 -200 -38 -274 -22 -128 27
-237 116 -283 229 -23 57 -23 61 -26 541 -2 325 1 502 8 537 24 113 103 224
192 270 80 42 102 43 883 43 472 0 766 -3 794 -10z"/>
</g>
</svg>
